<?xml version="1.0" encoding="UTF-8"?>
<!DOCTYPE svg PUBLIC "-//W3C//DTD SVG 1.1//EN" "http://www.w3.org/Graphics/SVG/1.1/DTD/svg11.dtd">
<!-- Creator: CorelDRAW 2021 (64-Bit) -->
<svg xmlns="http://www.w3.org/2000/svg" xml:space="preserve" width="49.6527mm" height="42.3333mm" version="1.1" style="shape-rendering:geometricPrecision; text-rendering:geometricPrecision; image-rendering:optimizeQuality; fill-rule:evenodd; clip-rule:evenodd"
viewBox="0 0 147.73 125.95"
 xmlns:xlink="http://www.w3.org/1999/xlink"
 xmlns:xodm="http://www.corel.com/coreldraw/odm/2003">
 <defs>
  <style type="text/css">
   <![CDATA[
    .fil1 {fill:#33A853}
    .fil0 {fill:#4285F4}
    .fil3 {fill:#EA4335}
    .fil2 {fill:#FBBC04}
   ]]>
  </style>
 </defs>
 <g id="Layer_x0020_1">
  <metadata id="CorelCorpID_0Corel-Layer"/>
  <g id="_2075648941328">
   <path class="fil0" d="M48.67 122.34c-3.34,-2.97 -2.71,-1.73 -5.93,-5.86 -5.87,-7.53 -6.4,-19.72 -1.61,-27.52 2.84,-5.27 6.52,-11.15 9.57,-16.57 3.1,-5.51 6.38,-10.9 9.52,-16.47 3.08,-5.47 8.01,-11.43 4.01,-19.47 -2.63,-5.27 -7.26,-7.13 -12.6,-10.18 -0.63,-0.36 -1.57,-0.83 -2,-1.28l-8.19 -4.56c-6.62,-2.97 -14.16,-0.31 -18.06,5.57l-5.95 10.24c-0.41,0.74 -0.74,1.35 -1.16,2.05l-5.87 10.15c-3.86,7.14 -7.58,11.43 -9.62,19.74 -1.83,7.49 -0.16,16.1 2.59,21.54 3.11,6.16 6.63,9.89 12.33,13.65 0.71,0.47 1.28,0.76 2.01,1.2l14.46 8.32c1.37,0.74 2.72,1.58 4.06,2.35 1.42,0.81 2.76,1.55 4.18,2.4l8.28 4.69z"/>
   <path class="fil1" d="M49.63 24.99c0.43,0.44 1.37,0.92 2,1.28 5.34,3.05 9.98,4.91 12.6,10.18 4,8.04 -0.93,14.01 -4.01,19.47 -3.14,5.57 -6.42,10.95 -9.52,16.47 -3.05,5.42 -6.73,11.3 -9.57,16.57 1.91,0.65 6.98,4.4 10.26,5.54 5.46,1.89 11.4,0.78 15.68,-2.53 0.82,-0.64 1.35,-1.18 2.12,-1.93 2,-1.93 17.78,-30.25 20.71,-35.14l11.73 -20.24c2.26,-5.05 7.01,-9.31 12.08,-11.46 4.7,-1.99 10.11,-2.4 15.21,-1.01 1.63,0.45 2.91,1.12 4.3,1.58l-10.41 -6.1c-3.51,-2.11 -6.99,-3.95 -10.48,-6.05 -3.48,-2.09 -7.02,-3.96 -10.48,-6.05 -3.46,-2.09 -7.06,-3.92 -11.66,-4.87 -14.08,-2.9 -27.54,3.45 -34.41,13.82 -1.1,1.66 -2.1,3.35 -3.09,5.17l-3.06 5.29z"/>
   <path class="fil2" d="M41.13 88.96c-4.79,7.81 -4.26,19.99 1.61,27.52 3.22,4.13 2.59,2.89 5.93,5.86 1.37,1.1 4.51,2.2 6.56,2.74 2.35,0.61 5.41,1.06 8.63,0.8 8.25,-0.66 13.63,-4.18 18.53,-9.65 2.09,-2.33 7.64,-12.65 9.78,-16.21l0.9 -1.47c0.28,-0.93 8.85,-15.55 9.51,-16.64 3.26,-5.45 6.26,-10.97 9.51,-16.47 3.74,-6.34 7.6,-11.55 4.11,-19.38 -1.34,-3.01 -3.59,-5.15 -6.31,-6.68 -2.68,-1.51 -5.59,-3.44 -8.25,-4.72l-11.73 20.24c-2.93,4.89 -18.71,33.22 -20.71,35.14 -0.77,0.74 -1.3,1.29 -2.12,1.93 -4.28,3.31 -10.23,4.43 -15.68,2.53 -3.28,-1.14 -8.35,-4.89 -10.26,-5.54z"/>
   <path class="fil3" d="M101.64 34.66c2.66,1.28 5.57,3.21 8.25,4.72 2.72,1.53 4.97,3.67 6.31,6.68 3.49,7.83 -0.37,13.04 -4.11,19.38 -3.25,5.51 -6.25,11.03 -9.51,16.47 -0.66,1.1 -9.23,15.71 -9.51,16.64 1.67,0.39 9.13,5.76 12.99,6.75 4.06,1.04 8.34,0.26 11.68,-1.99 3.51,-2.37 4.39,-4.75 6.53,-8.31l18.16 -31.45c2.6,-4.4 4.81,-8.15 5.13,-14.78 0.04,-0.91 0.27,-1.01 0.1,-2.12 -0.35,-2.21 -0.05,-3.12 -1,-6.43 -0.73,-2.52 -1.76,-4.95 -3.05,-6.91l-3.79 -4.82c-1.53,-1.38 -4.73,-4.14 -6.6,-4.73 -1.38,-0.47 -2.67,-1.14 -4.3,-1.58 -5.09,-1.39 -10.51,-0.98 -15.21,1.01 -5.07,2.15 -9.82,6.41 -12.08,11.46z"/>
  </g>
 </g>
</svg>
