<?xml version="1.0" encoding="UTF-8"?>
<!DOCTYPE svg PUBLIC "-//W3C//DTD SVG 1.1//EN" "http://www.w3.org/Graphics/SVG/1.1/DTD/svg11.dtd">
<!-- Creator: CorelDRAW 2021 (64-Bit) -->
<svg xmlns="http://www.w3.org/2000/svg" xml:space="preserve" width="45.2005mm" height="42.3333mm" version="1.1" style="shape-rendering:geometricPrecision; text-rendering:geometricPrecision; image-rendering:optimizeQuality; fill-rule:evenodd; clip-rule:evenodd"
viewBox="0 0 108 101.15"
 xmlns:xlink="http://www.w3.org/1999/xlink"
 xmlns:xodm="http://www.corel.com/coreldraw/odm/2003">
 <defs>
  <style type="text/css">
   <![CDATA[
    .fil4 {fill:#008A43}
    .fil0 {fill:#00BCF0}
    .fil2 {fill:#152A73}
    .fil1 {fill:#221E1F}
    .fil3 {fill:#F2781F}
   ]]>
  </style>
 </defs>
 <g id="Layer_x0020_1">
  <metadata id="CorelCorpID_0Corel-Layer"/>
  <g id="_2111264043184">
   <path class="fil0" d="M85.64 6.79c0,-2.02 -2.12,-1.5 -5.32,-1.5 -1.18,0 -1.77,0.31 -1.77,1.5l0 25.5c0,0.81 0.28,1.36 1.09,1.36 6.95,0 6,1.01 6,-4.91 0,-1.65 -0.11,-14.6 0.05,-15.22 0.26,-1.01 1.1,-1.28 2.13,-1.28 2.25,0 1.91,2.03 1.91,4.23l-0 15.41c-0.03,2.42 0.73,1.91 5.59,1.91 2.01,0 1.5,-1.99 1.5,-4.64l0.01 -15.53c0.16,-1.2 1.15,-1.37 2.17,-1.37 2.14,0 1.91,1.98 1.91,4.09l0.01 16.49c0.06,0.37 0.38,0.83 0.81,0.83l5.32 0c0.3,0 0.82,-0.3 0.82,-0.95l0 -21.14c0,-1.77 -1.03,-3.27 -2.15,-4.4 -3.04,-3.06 -8.45,-2.33 -10.13,0.17 -1.72,-1.15 -2.21,-2.18 -5.59,-2.18 -1.94,0 -3.1,0.79 -4.36,1.64z"/>
   <path class="fil1" d="M44.45 77.83l28.77 0c-0.14,0.3 -0.31,1 -0.41,1.36 -0.14,0.51 -0.27,0.97 -0.41,1.5 -0.26,1 -0.58,1.95 -0.82,3l-28.91 0c-0.06,0.73 -4.25,15.21 -4.77,17.45l5.86 0 1.64 -5.73c0.25,-0.97 0.53,-1.99 0.79,-2.89l0.85 -2.97c8.05,0 16.09,-0 24.14,0 2.58,0 3.25,-0.03 4.61,-1.39 0.94,-0.95 1.24,-2.83 1.7,-4.44 0.42,-1.5 0.88,-3.19 1.3,-4.7 0.78,-2.79 2.71,-6.99 -1.05,-7.07l-13.64 0.01c-6.05,0 -12.09,0 -18.14,0 -0.29,1.25 -1.5,5 -1.5,5.86z"/>
   <path class="fil1" d="M2.45 101.15l29.45 0c1.53,0 2.38,-0.76 2.82,-2.09 0.92,-2.8 2.35,-8.59 3.23,-11.63 0.76,-2.6 1.42,-5.12 2.13,-7.68 0.35,-1.27 0.75,-2.61 1.06,-3.85l1.12 -3.93 -6 0c-0.08,0.93 -4.12,14.76 -4.8,17.43 -0.49,1.93 -1.14,3.9 -1.61,5.89l-22.91 0c0.07,-0.83 0.54,-2.02 0.76,-2.92 1.16,-4.65 2.86,-9.86 4.04,-14.51 0.49,-1.93 1.14,-3.9 1.61,-5.89l-5.86 0 -1.06 3.71c-0.33,1.3 -0.69,2.53 -1.07,3.84l-4.8 17.29c-0.44,1.49 -1.33,4.35 1.89,4.35z"/>
   <path class="fil2" d="M27 26.29l0 -4.23c0,-1.07 2.13,-0.82 3,-0.82 0.66,0 1.09,0.43 1.09,1.09l0 4.09c0,1.12 -2.05,0.82 -3.14,0.82 -0.64,0 -0.95,-0.32 -0.95,-0.95zm-4.36 -19.77l0 4.5c0,1.51 2.07,1.09 4.23,1.09 1.77,0 4.23,-0.48 4.23,1.23 0,0.66 -0.29,0.84 -0.55,1.23 -3.13,0 -5.75,-0.11 -7.69,1.17 -3.82,2.52 -3.08,6.21 -3.08,11.1 0,4.03 2.65,6.82 6.68,6.82l9 0c1.36,0 2.73,-1.21 2.73,-2.59l0 -18.68c0,-4.56 -3.05,-6.95 -7.64,-6.95l-6.55 0c-0.81,0 -1.36,0.28 -1.36,1.09z"/>
   <path class="fil2" d="M40.64 6.24l0 12c0,2.27 1.66,4.56 3.68,5.6 3.57,1.83 7.5,-0.29 7.5,1.77 0,1.56 -2.21,1.09 -4.77,1.09 -5.16,0 -4.36,-0.71 -4.36,5.86 0,0.67 0.55,1.23 1.23,1.23l7.91 0c1.22,0 2.29,-0.31 3.14,-0.68 3.05,-1.35 3.95,-4.3 3.95,-7.5l0 -18.68c0,-0.85 -0.39,-1.5 -1.23,-1.5 -6.17,0 -5.87,-0.54 -5.86,2.45l0 7.23c0.01,2.71 -0.33,2.45 -2.73,2.45 -0.85,0 -0.89,-0.23 -1.36,-0.55 0,-1.05 -0,-2.09 0,-3.14 0,-1.25 -0.14,-1.96 -0.14,-3.14 0.01,-1.05 -0,-2.09 0,-3.14 0.01,-2.69 0.22,-2.18 -5.86,-2.18 -0.5,0 -1.09,0.38 -1.09,0.82z"/>
   <path class="fil2" d="M10.36 18.24l-3.27 0 0 -5.73c4.75,0 4.09,-0.67 4.09,4.64 0,0.5 -0.38,1.09 -0.82,1.09zm-10.36 -11.32l0 25.36c0,0.85 0.39,1.5 1.23,1.5l4.64 0c0.66,0 1.23,-0.39 1.23,-1.09l0 -7.36c3.79,0 7.16,0.6 9.51,-1.94 0.93,-1.01 1.67,-2.7 1.67,-4.61l0 -6.68c0,-2.78 -1.55,-5.2 -3.6,-6.08 -0.7,-0.3 -1.75,-0.6 -2.67,-0.6l-10.77 0c-0.84,0 -1.23,0.65 -1.23,1.5z"/>
   <path class="fil1" d="M57.27 53.28c-2.19,0.18 -0.6,0.61 -4.22,0.25 0.22,-0.91 0.5,-1.87 0.76,-2.89 0.26,-1.04 0.51,-1.95 0.74,-2.95l4.09 0c-0.12,0.25 -1.33,5.19 -1.36,5.59zm-3.82 -15.82c0.04,0.53 0.54,1.06 0.96,1.77l2.33 3.4c0.44,0.55 1.02,1.02 1.35,1.52l-14.18 0c-0.19,0.39 -0.82,2.96 -0.82,3.55l6.95 0c-0.04,0.54 -0.28,1.26 -0.41,1.77 -0.53,2.12 -0.67,4.36 -2.32,4.36 -0.95,0 -1.59,-1 -1.77,-1.77 -1.05,0.55 -3.48,2.43 -4.09,2.59 0.13,0.58 0.42,0.89 0.68,1.36l2.32 4.09c0.52,1.01 2.9,5.01 3,5.46 0.67,-0.06 3.58,-1.77 4.36,-2.18l-1.87 -3.18c-0.31,-0.56 -0.58,-0.98 -0.92,-1.54 -0.36,-0.6 -0.73,-0.99 -1.03,-1.56 0.83,-0.02 1.9,-0.39 2.45,-0.68 1.95,1.31 2.54,1.09 5.05,1.09 0.37,0 0.38,-0.06 0.68,-0.14 -0.05,0.57 -0.29,1.3 -0.44,1.88l-1.34 5.75 4.5 0c0.05,-0.6 0.33,-1.46 0.49,-2.1l3.22 -13.01c0.14,-0.56 0.47,-1.6 0.52,-2.21l2.59 0 0.85 -3.54 -3.71 -0.01c-1.07,-2.02 -2.28,-3.83 -3.31,-5.68 -0.29,-0.52 -0.94,-1.47 -1.05,-1.95 -1.43,0.12 -3.86,0.95 -5.05,0.95z"/>
   <path class="fil0" d="M61.5 6.24l0 5.18c0,1.47 2,1.09 3.95,1.09l0 20.32c0,0.66 0.43,1.09 1.09,1.09l4.64 0c0.67,0 1.23,-0.55 1.23,-1.23l0 -20.18c4.44,0 3.68,0.71 3.68,-6 0,-1.48 -1.83,-1.09 -3.82,-1.09l0 -4.64c0,-0.38 -0.64,-1.42 -2.28,-0.24 -1.04,0.74 -1.46,1.78 -2.31,2.73l-0.46 0.5c-2.61,2.52 -5.71,0.95 -5.71,2.47z"/>
   <path class="fil2" d="M108 53.23l-36.41 -0.02c-0.25,0.39 -1.27,5.77 -1.5,6.75l37.91 0 0 -6.74z"/>
   <path class="fil0" d="M71.59 53.21l36.41 0.02 0 -6.76 -35.05 0c-0.25,1.05 -0.48,2.19 -0.69,3.26 -0.19,0.93 -0.65,2.53 -0.67,3.49z"/>
   <path class="fil0" d="M0.27 53.23c3.03,-0.13 34.69,-0.12 35.15,0.06 0.16,-0.21 0.03,0.02 0.14,-0.29l0.66 -3.03c0.14,-0.63 0.23,-1.04 0.36,-1.69 0.09,-0.48 0.33,-1.3 0.38,-1.81l-36.68 0 0 6.76z"/>
   <path class="fil2" d="M35.42 53.28c-0.46,-0.18 -32.12,-0.19 -35.15,-0.06l0 6.74 33.82 0c0.25,-1.08 0.46,-2.14 0.69,-3.26 0.15,-0.73 0.7,-2.71 0.64,-3.42z"/>
   <path class="fil1" d="M76.77 101.01l5.86 0 2.02 -7.26c0.69,-2.46 1.32,-4.79 2.02,-7.26l4.01 -14.67 -5.86 0 -1.01 3.62c-0.35,1.24 -0.67,2.45 -1.02,3.62 -0.36,1.23 -0.65,2.39 -1,3.64l-5.02 18.3z"/>
   <path class="fil3" d="M94.09 94.88l0.14 -0.14c0.3,-0.62 1.51,-1.42 2.06,-2.03 0.8,-0.89 1.39,-1.3 2.18,-2.04 0.38,-0.36 0.62,-0.7 1,-1.04l3.24 -3.07c-0.47,-1.59 -3.8,-7.18 -3.99,-8.32l-3.41 -6.27c-0.01,0.64 -1.73,6.37 -1.94,7.2 -0.61,2.38 -1.39,4.85 -2.02,7.25 -0.64,2.44 -1.28,4.81 -2,7.28 -0.36,1.25 -0.66,2.39 -1.02,3.62 -0.21,0.73 -0.92,3.11 -0.94,3.7 0.69,-0.37 1.11,-0.9 1.67,-1.47 0.29,-0.29 0.52,-0.56 0.82,-0.81 1.18,-0.98 1.65,-1.64 2.45,-2.32 0.39,-0.32 0.51,-0.38 0.88,-0.76 0.3,-0.31 0.51,-0.56 0.85,-0.79zm-6.82 6.14c-0.01,0.01 0.04,0.02 0.04,0.04l-0.04 -0.04z"/>
   <path class="fil4" d="M98.73 78.24c0.19,1.13 3.52,6.73 3.99,8.32l-3.24 3.07c-0.38,0.34 -0.62,0.68 -1,1.04 -0.79,0.74 -1.39,1.16 -2.18,2.04 -0.55,0.61 -1.76,1.41 -2.06,2.03l-0.14 0.14c-0.02,0.85 -1.56,5.34 -1.64,6.27l7.74 -7.26c0.31,-0.31 0.56,-0.61 0.89,-0.88l6.91 -6.45c-1.28,-2.41 -2.48,-4.81 -3.73,-7.32 -0.34,-0.68 -3.29,-6.92 -3.77,-7.27l-1.31 4.69c-0.17,0.61 -0.23,1.09 -0.47,1.58z"/>
  </g>
 </g>
</svg>
