<?xml version="1.0" encoding="UTF-8"?>
<!DOCTYPE svg PUBLIC "-//W3C//DTD SVG 1.1//EN" "http://www.w3.org/Graphics/SVG/1.1/DTD/svg11.dtd">
<!-- Creator: CorelDRAW 2021 (64-Bit) -->
<svg xmlns="http://www.w3.org/2000/svg" xml:space="preserve" width="42.3333mm" height="42.3333mm" version="1.1" style="shape-rendering:geometricPrecision; text-rendering:geometricPrecision; image-rendering:optimizeQuality; fill-rule:evenodd; clip-rule:evenodd"
viewBox="0 0 4219.13 4219.13"
 xmlns:xlink="http://www.w3.org/1999/xlink"
 xmlns:xodm="http://www.corel.com/coreldraw/odm/2003">
 <defs>
  <style type="text/css">
   <![CDATA[
    .str0 {stroke:white;stroke-width:70.32;stroke-miterlimit:22.9256}
    .fil0 {fill:#6539B5}
    .fil1 {fill:white}
   ]]>
  </style>
 </defs>
 <g id="Layer_x0020_1">
  <metadata id="CorelCorpID_0Corel-Layer"/>
  <g id="_2113396902432">
   <circle class="fil0" cx="2109.56" cy="2109.56" r="2109.56"/>
   <path class="fil1 str0" d="M1794.71 1840.38c0,-40.73 5.1,-48.73 43.38,-52.61l427.43 0.35c59.99,-0.08 126.36,-19.67 126.36,44.36l0 632.14c0,191.06 -81.41,278.89 -276.18,278.89 -199.24,0 -321,-9.94 -321,-278.89l0 -624.24zm-287.37 505.72c0,191.39 -11.45,346.66 85.34,475.81 80.57,107.51 190.83,172.58 375.89,182.36 78.25,4.13 181.64,3.75 250.84,-17.13 124.55,-37.59 128.6,-95.53 164.58,-115.91 1.05,2.12 1.92,4.9 2.41,6.69 0.49,1.8 1.64,4.55 2.17,6.82 12.1,51.83 -4,-37.67 2.94,14.42 0.64,4.84 0.89,18.12 0.96,23.45l-0.58 166.27c0,490.95 -51.21,434.46 205.83,433.89 98.8,-0.22 81.69,-41.88 81.55,-133.6l-0.1 -1501.4c-1.09,-125.14 9.26,-99.77 131.31,-99.64 180.67,0.2 179.5,23.81 176.05,-182.71 -1.43,-85.73 -47.58,-72.4 -128.65,-72.13 -73.7,0.25 -147.44,0.02 -221.16,0.03 -207.82,0.01 -157.23,8.26 -346.61,-294.22 -381.95,-610.06 -266.75,-541.48 -538.15,-543.58 -181.49,-1.41 -61.67,120.44 9.23,226.92 82.31,123.6 177.14,265.24 270.07,378.12l197.1 232.77c-256.13,0 -512.27,0 -768.4,0 -250.31,0 -226.79,-21.44 -228.06,149.18 -0.57,76.26 -2.03,104.69 77.94,105.98 57.79,0.95 137.32,-12.24 186.56,7.55 27.9,51.41 10.95,455.25 10.95,550.08z"/>
  </g>
 </g>
</svg>
