<?xml version="1.0" encoding="UTF-8"?>
<!DOCTYPE svg PUBLIC "-//W3C//DTD SVG 1.1//EN" "http://www.w3.org/Graphics/SVG/1.1/DTD/svg11.dtd">
<!-- Creator: CorelDRAW 2021 (64-Bit) -->
<svg xmlns="http://www.w3.org/2000/svg" xml:space="preserve" width="1.3548mm" height="1.2788mm" version="1.1" style="shape-rendering:geometricPrecision; text-rendering:geometricPrecision; image-rendering:optimizeQuality; fill-rule:evenodd; clip-rule:evenodd"
viewBox="0 0 0.18 0.17"
 xmlns:xlink="http://www.w3.org/1999/xlink"
 xmlns:xodm="http://www.corel.com/coreldraw/odm/2003">
 <defs>
  <style type="text/css">
   <![CDATA[
    .fil0 {fill:#272525;fill-rule:nonzero}
   ]]>
  </style>
 </defs>
 <g id="Layer_x0020_1">
  <metadata id="CorelCorpID_0Corel-Layer"/>
  <path class="fil0" d="M0.02 0.09c-0,-0 -0,-0 -0,-0.01 0,-0.02 0.01,-0.04 0.02,-0.06 0.01,-0.01 0.03,-0.02 0.06,-0.02 0.02,0 0.04,0.01 0.06,0.02 0.01,0.01 0.02,0.03 0.02,0.06 0,0.02 -0.01,0.04 -0.02,0.06 -0.01,0.01 -0.03,0.02 -0.06,0.02 -0.03,0 -0.05,-0.01 -0.06,-0.03 -0,-0 -0,-0 -0,-0 -0,0 -0,0 -0,0 0.02,0.02 0.04,0.04 0.07,0.04 0.05,0 0.09,-0.04 0.09,-0.09 -0,-0.05 -0.04,-0.09 -0.09,-0.09 -0.05,0 -0.09,0.04 -0.09,0.09 0,0 0,0.01 0,0.01 0,0 0,0 0,0 0,-0 0,-0 0,-0z"/>
  <path class="fil0" d="M0.05 0.07c0,-0 0,-0 0.01,-0 0,0 0,0 0.01,0 0,0 0,0 0,0 0,-0 0,-0 0,-0 -0,-0 -0.01,-0.01 -0.01,-0.01 -0.01,0 -0.01,0 -0.01,0.01 -0,0 -0,0 0,0 0,0 0,0 0,-0l0 0z"/>
  <path class="fil0" d="M0.1 0.13c-0,0 -0,0 -0,0 -0,0 -0,-0 -0.01,-0 -0,-0 -0,-0 -0,-0.01 0,-0 0,-0 0,-0.01 0,-0 0,-0 0,-0l-0 -0 -0 0 0 0 0 -0 0 -0c-0,-0 -0,-0 -0,-0 -0,-0 -0,-0 -0,-0.01 0,-0 0,-0 0,-0.01 0,-0 0,-0 0.01,-0 0,0 0,0 0,0 0,0 0,0 0,-0 0,-0 0,-0 -0,-0 -0,-0 -0.01,-0 -0.01,-0 -0.01,0 -0.01,0.01 -0.01,0.01 0,0 0,0.01 0,0.01 0,0 0,0 0,0 0,0 0,0 0,-0 0,-0 0,-0 0,-0l-0 0c-0,-0 -0,-0 -0,-0 -0,0 -0,0 -0,0 -0,0 -0,0.01 -0,0.01 0,0.01 0.01,0.01 0.01,0.01 0,0 0.01,-0 0.01,-0 0,-0 0,-0 0,-0 -0,-0 -0,-0 -0,-0l0 0z"/>
  <path class="fil0" d="M0.05 0.09l0 -0c-0,-0 -0,-0 -0.01,-0 -0,0 -0.01,0 -0.01,0 -0,0 -0,0 -0.01,0.01 -0,0 -0,0 -0,0 -0,0 -0,0 -0,0l0 0 0 -0c-0,-0 -0,-0 -0,-0 -0,-0 -0,-0 -0,-0 -0,-0 -0,-0 -0.01,-0.01 -0,-0 -0.01,-0 -0.01,-0 -0,0 -0.01,0 -0.01,0 -0,0 -0.01,0.01 -0.01,0.01l0 0c-0,0 -0,0 -0,0 -0,0 0,0 0,0.01 0,0 0,0.01 0.01,0.01 0,0 0,0 0.01,0.01 0,0 0.01,0.01 0.01,0.01 0,0 0,0 0,-0 0,-0 0.01,-0.01 0.01,-0.01 0,-0 0.01,-0 0.01,-0.01 0,-0 0,-0 0,-0.01 0,-0 0,-0 0,-0.01 0,-0 -0,-0 -0,-0l0 -0c-0,-0.01 -0,-0.01 -0.01,-0.01l-0 0 -0 0c0,0 0.01,0 0.01,0.01l0 -0c0,0 0,0 0,0 0,0 -0,0 -0,0 -0,0 -0,0 -0,0 -0,0 -0,0 -0,0 -0,0 -0.01,0 -0.01,0.01 -0,0 -0.01,0.01 -0.01,0.01l0 0 0 -0c-0,-0 -0.01,-0.01 -0.01,-0.01 -0,-0 -0.01,-0 -0.01,-0.01 -0,-0 -0,-0 -0,-0 -0,-0 -0,-0 -0,-0 0,-0 0,-0 0,-0l0 0c0,-0 0,-0.01 0.01,-0.01 0,-0 0,-0 0,-0 0,0 0,0 0.01,0 0,0 0,0 0,0 0,0 0,0 0,0 0,0 0,0 0,0 0,0 0,0 0,0 0,0 0,-0 0,-0 0,-0 0,-0 0,-0 0,-0 0,-0 0,-0 0,-0 0,-0 0,-0 0,-0 0,-0 0.01,-0 0,0 0,0 0,0l0 -0z"/>
  <path class="fil0" d="M0.12 0.07c0,-0 0,-0 0.01,-0 0,0 0,0 0.01,0 0,0 0,0 0,0 0,-0 0,-0 0,-0 -0,-0 -0.01,-0.01 -0.01,-0.01 -0.01,0 -0.01,0 -0.01,0.01 -0,0 -0,0 0,0 0,0 0,0 0,-0l0 0z"/>
 </g>
</svg>
